<?xml version="1.0" encoding="UTF-8" standalone="no"?>
<svg
   xmlns:serif="http://www.serif.com/"
   xmlns:dc="http://purl.org/dc/elements/1.1/"
   xmlns:cc="http://creativecommons.org/ns#"
   xmlns:rdf="http://www.w3.org/1999/02/22-rdf-syntax-ns#"
   xmlns:svg="http://www.w3.org/2000/svg"
   xmlns="http://www.w3.org/2000/svg"
   xmlns:sodipodi="http://sodipodi.sourceforge.net/DTD/sodipodi-0.dtd"
   xmlns:inkscape="http://www.inkscape.org/namespaces/inkscape"
   width="100%"
   height="100%"
   viewBox="0 0 797 797"
   version="1.1"
   xml:space="preserve"
   style="fill-rule:evenodd;clip-rule:evenodd;stroke-linejoin:round;stroke-miterlimit:2;"
   id="svg62"
   sodipodi:docname="Bot.svg"
   inkscape:version="0.92.2 5c3e80d, 2017-08-06"><metadata
     id="metadata66"><rdf:RDF><cc:Work
         rdf:about=""><dc:format>image/svg+xml</dc:format><dc:type
           rdf:resource="http://purl.org/dc/dcmitype/StillImage" /><dc:title></dc:title></cc:Work></rdf:RDF></metadata><sodipodi:namedview
     pagecolor="#ffffff"
     bordercolor="#666666"
     borderopacity="1"
     objecttolerance="10"
     gridtolerance="10"
     guidetolerance="10"
     inkscape:pageopacity="0"
     inkscape:pageshadow="2"
     inkscape:window-width="1366"
     inkscape:window-height="703"
     id="namedview64"
     showgrid="false"
     inkscape:pagecheckerboard="true"
     inkscape:zoom="0.59222083"
     inkscape:cx="375.0811"
     inkscape:cy="404.99735"
     inkscape:window-x="0"
     inkscape:window-y="0"
     inkscape:window-maximized="1"
     inkscape:current-layer="svg62" /><g
     transform="matrix(1,0,0,1,-295.736,-2609.14)"
     id="g53"><g
       id="Bot-a"
       serif:id="Bot a"
       transform="matrix(0.93082,0,0,0.93082,173.565,1585.25)"><rect
         x="131.251"
         y="1099.98"
         width="856.103"
         height="856.103"
         style="fill:none;"
         id="rect2" /><g
         transform="matrix(0.266067,0,0,0.266067,-121.83,733.315)"
         id="g50"><circle
           cx="2560"
           cy="2986.9"
           r="1608.81"
           style="fill:url(#_Linear1);"
           id="circle4" /><g
           transform="matrix(1.24711,0,0,1.24711,-632.598,-850.838)"
           id="g48"><g
             transform="matrix(-0.317936,-4.02872e-17,6.96604e-18,-0.0588562,3373.92,4178.22)"
             id="g8"><path
               d="M3483.65,3546.4C3483.65,2620.02 3344.42,1867.92 3172.93,1867.92L1947.07,1867.92C1775.58,1867.92 1636.35,2620.02 1636.35,3546.4C1636.35,3855.19 1682.76,4105.89 1739.92,4105.89L3380.08,4105.89C3437.24,4105.89 3483.65,3855.19 3483.65,3546.4Z"
               style="fill:rgb(250,250,250);"
               id="path6" /></g><g
             transform="matrix(0.801855,0,0,0.801855,507.252,682.248)"
             id="g12"><path
               d="M3512.23,2829.77C3512.23,2304.22 3085.55,1877.54 2560,1877.54C2034.45,1877.54 1607.77,2304.22 1607.77,2829.77L1607.77,3530.48C1607.77,3793.25 1821.11,4006.59 2083.89,4006.59L3036.11,4006.59C3298.89,4006.59 3512.23,3793.25 3512.23,3530.48L3512.23,2829.77ZM3271.14,2820.72C3271.14,2449.33 2969.63,2147.81 2598.24,2147.81L2521.76,2147.81C2150.37,2147.81 1848.86,2449.33 1848.86,2820.72L1848.86,2868.78C1848.86,3001.42 1956.54,3109.1 2089.18,3109.1L3030.82,3109.1C3163.46,3109.1 3271.14,3001.42 3271.14,2868.78L3271.14,2820.72Z"
               style="fill:rgb(250,250,250);"
               id="path10" /></g><g
             transform="matrix(1.14324,0,0,1.14324,-366.692,-376.679)"
             id="g20"><g
               transform="matrix(1,0,0,0.706182,0,592.405)"
               id="g16"><rect
                 x="2514.35"
                 y="2076.05"
                 width="91.302"
                 height="232.038"
                 style="fill:rgb(250,250,250);"
                 id="rect14" /></g><circle
               cx="2560"
               cy="2068.33"
               r="72.074"
               style="fill:rgb(250,250,250);"
               id="circle18" /></g><g
             transform="matrix(1,0,0,1,0,107.758)"
             id="g24"><circle
               cx="2220.31"
               cy="2784.18"
               r="139.495"
               style="fill:rgb(250,250,250);"
               id="circle22" /></g><g
             transform="matrix(1,0,0,1,0,107.758)"
             id="g28"><circle
               cx="2220.31"
               cy="2784.18"
               r="139.495"
               style="fill:rgb(250,250,250);"
               id="circle26" /></g><g
             transform="matrix(1,0,0,1,695.793,107.758)"
             id="g32"><circle
               cx="2220.31"
               cy="2784.18"
               r="139.495"
               style="fill:rgb(250,250,250);"
               id="circle30" /></g><path
             d="M3472.4,3180.29C3472.4,3098.13 3405.7,3031.43 3323.55,3031.43C3241.39,3031.43 3174.69,3098.13 3174.69,3180.29L3174.69,3281.71C3174.69,3363.87 3241.39,3430.57 3323.55,3430.57C3405.7,3430.57 3472.4,3363.87 3472.4,3281.71L3472.4,3180.29Z"
             style="fill:rgb(250,250,250);"
             id="path34" /><g
             transform="matrix(1,0,0,1,-1527.09,0)"
             id="g38"><path
               d="M3472.4,3180.29C3472.4,3098.13 3405.7,3031.43 3323.55,3031.43C3241.39,3031.43 3174.69,3098.13 3174.69,3180.29L3174.69,3281.71C3174.69,3363.87 3241.39,3430.57 3323.55,3430.57C3405.7,3430.57 3472.4,3363.87 3472.4,3281.71L3472.4,3180.29Z"
               style="fill:rgb(250,250,250);"
               id="path36" /></g><g
             transform="matrix(1.88524,0,0,1,-3095.11,-50.7128)"
             id="g42"><path
               d="M3483.65,3272.96C3483.65,3249.8 3473.68,3231 3461.39,3231C3449.11,3231 3439.13,3249.8 3439.13,3272.96L3439.13,3733.73C3439.13,3756.89 3449.11,3775.69 3461.39,3775.69C3473.68,3775.69 3483.65,3756.89 3483.65,3733.73L3483.65,3272.96Z"
               style="fill:rgb(250,250,250);"
               id="path40" /></g><g
             transform="matrix(1.88524,0,0,1,-4835.99,-50.7128)"
             id="g46"><path
               d="M3483.65,3272.96C3483.65,3249.8 3473.68,3231 3461.39,3231C3449.11,3231 3439.13,3249.8 3439.13,3272.96L3439.13,3733.73C3439.13,3756.89 3449.11,3775.69 3461.39,3775.69C3473.68,3775.69 3483.65,3756.89 3483.65,3733.73L3483.65,3272.96Z"
               style="fill:rgb(250,250,250);"
               id="path44" /></g></g></g></g></g><defs
     id="defs60"><linearGradient
       id="_Linear1"
       x1="0"
       y1="0"
       x2="1"
       y2="0"
       gradientUnits="userSpaceOnUse"
       gradientTransform="matrix(2275.73,2273.78,-2273.78,2275.73,1422.13,1850.01)"><stop
         offset="0"
         style="stop-color:rgb(106,177,229);stop-opacity:1"
         id="stop55" /><stop
         offset="1"
         style="stop-color:rgb(141,0,188);stop-opacity:1"
         id="stop57" /></linearGradient></defs></svg>