<?xml version="1.0" encoding="UTF-8" standalone="no"?>
<svg
   xmlns:serif="http://www.serif.com/"
   xmlns:dc="http://purl.org/dc/elements/1.1/"
   xmlns:cc="http://creativecommons.org/ns#"
   xmlns:rdf="http://www.w3.org/1999/02/22-rdf-syntax-ns#"
   xmlns:svg="http://www.w3.org/2000/svg"
   xmlns="http://www.w3.org/2000/svg"
   xmlns:sodipodi="http://sodipodi.sourceforge.net/DTD/sodipodi-0.dtd"
   xmlns:inkscape="http://www.inkscape.org/namespaces/inkscape"
   width="100%"
   height="100%"
   viewBox="0 0 5120 5120"
   version="1.1"
   xml:space="preserve"
   style="fill-rule:evenodd;clip-rule:evenodd;stroke-linecap:round;stroke-linejoin:round;stroke-miterlimit:1.5;"
   id="svg504"
   sodipodi:docname="Bots.svg"
   inkscape:version="0.92.2 5c3e80d, 2017-08-06"><metadata
     id="metadata508"><rdf:RDF><cc:Work
         rdf:about=""><dc:format>image/svg+xml</dc:format><dc:type
           rdf:resource="http://purl.org/dc/dcmitype/StillImage" /><dc:title></dc:title></cc:Work></rdf:RDF></metadata><sodipodi:namedview
     pagecolor="#ffffff"
     bordercolor="#666666"
     borderopacity="1"
     objecttolerance="10"
     gridtolerance="10"
     guidetolerance="10"
     inkscape:pageopacity="0"
     inkscape:pageshadow="2"
     inkscape:window-width="1366"
     inkscape:window-height="703"
     id="namedview506"
     showgrid="false"
     inkscape:pagecheckerboard="true"
     inkscape:zoom="0.184375"
     inkscape:cx="2366.6898"
     inkscape:cy="3841.026"
     inkscape:window-x="0"
     inkscape:window-y="0"
     inkscape:window-maximized="1"
     inkscape:current-layer="svg504" /><g
     id="Bot-e"
     serif:id="Bot e"
     transform="matrix(0.93082,0,0,0.93082,173.565,1585.25)"><g
       transform="matrix(1,0,0,1,3899.13,0)"
       id="g4"><rect
         x="131.251"
         y="1099.98"
         width="856.103"
         height="856.103"
         style="fill:none;"
         id="rect2" /></g><g
       transform="matrix(0.266067,0,0,0.266067,3777.3,733.315)"
       id="g52"><circle
         cx="2560"
         cy="2986.9"
         r="1608.81"
         style="fill:url(#_Linear1);"
         id="circle6" /><g
         transform="matrix(1.24711,0,0,1.24711,-632.598,-850.838)"
         id="g50"><g
           transform="matrix(-0.317936,-4.02872e-17,6.96604e-18,-0.0588562,3373.92,4178.22)"
           id="g10"><path
             d="M3483.65,3546.4C3483.65,2620.02 3344.42,1867.92 3172.93,1867.92L1947.07,1867.92C1775.58,1867.92 1636.35,2620.02 1636.35,3546.4C1636.35,3855.19 1682.76,4105.89 1739.92,4105.89L3380.08,4105.89C3437.24,4105.89 3483.65,3855.19 3483.65,3546.4Z"
             style="fill:rgb(250,250,250);"
             id="path8" /></g><g
           transform="matrix(0.801855,0,0,0.801855,507.252,682.248)"
           id="g14"><path
             d="M3512.23,2829.77C3512.23,2304.22 3085.55,1877.54 2560,1877.54C2034.45,1877.54 1607.77,2304.22 1607.77,2829.77L1607.77,3530.48C1607.77,3793.25 1821.11,4006.59 2083.89,4006.59L3036.11,4006.59C3298.89,4006.59 3512.23,3793.25 3512.23,3530.48L3512.23,2829.77ZM3271.14,2820.72C3271.14,2449.33 2969.63,2147.81 2598.24,2147.81L2521.76,2147.81C2150.37,2147.81 1848.86,2449.33 1848.86,2820.72L1848.86,2868.78C1848.86,3001.42 1956.54,3109.1 2089.18,3109.1L3030.82,3109.1C3163.46,3109.1 3271.14,3001.42 3271.14,2868.78L3271.14,2820.72Z"
             style="fill:rgb(250,250,250);"
             id="path12" /></g><g
           transform="matrix(1.14324,0,0,1.14324,-366.692,-376.679)"
           id="g22"><g
             transform="matrix(1,0,0,0.706182,0,592.405)"
             id="g18"><rect
               x="2514.35"
               y="2076.05"
               width="91.302"
               height="232.038"
               style="fill:rgb(250,250,250);"
               id="rect16" /></g><circle
             cx="2560"
             cy="2068.33"
             r="72.074"
             style="fill:rgb(250,250,250);"
             id="circle20" /></g><g
           transform="matrix(1,0,0,1,0,107.758)"
           id="g26"><circle
             cx="2220.31"
             cy="2784.18"
             r="139.495"
             style="fill:rgb(250,250,250);"
             id="circle24" /></g><g
           transform="matrix(1,0,0,1,0,107.758)"
           id="g30"><circle
             cx="2220.31"
             cy="2784.18"
             r="139.495"
             style="fill:rgb(250,250,250);"
             id="circle28" /></g><g
           transform="matrix(1,0,0,1,695.793,107.758)"
           id="g34"><circle
             cx="2220.31"
             cy="2784.18"
             r="139.495"
             style="fill:rgb(250,250,250);"
             id="circle32" /></g><path
           d="M3472.4,3180.29C3472.4,3098.13 3405.7,3031.43 3323.55,3031.43C3241.39,3031.43 3174.69,3098.13 3174.69,3180.29L3174.69,3281.71C3174.69,3363.87 3241.39,3430.57 3323.55,3430.57C3405.7,3430.57 3472.4,3363.87 3472.4,3281.71L3472.4,3180.29Z"
           style="fill:rgb(250,250,250);"
           id="path36" /><g
           transform="matrix(1,0,0,1,-1527.09,0)"
           id="g40"><path
             d="M3472.4,3180.29C3472.4,3098.13 3405.7,3031.43 3323.55,3031.43C3241.39,3031.43 3174.69,3098.13 3174.69,3180.29L3174.69,3281.71C3174.69,3363.87 3241.39,3430.57 3323.55,3430.57C3405.7,3430.57 3472.4,3363.87 3472.4,3281.71L3472.4,3180.29Z"
             style="fill:rgb(250,250,250);"
             id="path38" /></g><g
           transform="matrix(1.88524,0,0,1,-3095.11,-50.7128)"
           id="g44"><path
             d="M3483.65,3272.96C3483.65,3249.8 3473.68,3231 3461.39,3231C3449.11,3231 3439.13,3249.8 3439.13,3272.96L3439.13,3733.73C3439.13,3756.89 3449.11,3775.69 3461.39,3775.69C3473.68,3775.69 3483.65,3756.89 3483.65,3733.73L3483.65,3272.96Z"
             style="fill:rgb(250,250,250);"
             id="path42" /></g><g
           transform="matrix(1.88524,0,0,1,-4835.99,-50.7128)"
           id="g48"><path
             d="M3483.65,3272.96C3483.65,3249.8 3473.68,3231 3461.39,3231C3449.11,3231 3439.13,3249.8 3439.13,3272.96L3439.13,3733.73C3439.13,3756.89 3449.11,3775.69 3461.39,3775.69C3473.68,3775.69 3483.65,3756.89 3483.65,3733.73L3483.65,3272.96Z"
             style="fill:rgb(250,250,250);"
             id="path46" /></g></g></g></g><g
     id="Bot-d"
     serif:id="Bot d"
     transform="matrix(0.93082,0,0,0.93082,173.565,1585.25)"><g
       transform="matrix(1,0,0,1,2924.35,0)"
       id="g57"><rect
         x="131.251"
         y="1099.98"
         width="856.103"
         height="856.103"
         style="fill:none;"
         id="rect55" /></g><g
       transform="matrix(0.266067,0,0,0.266067,2802.52,733.315)"
       id="g105"><circle
         cx="2560"
         cy="2986.9"
         r="1608.81"
         style="fill:url(#_Linear2);"
         id="circle59" /><g
         transform="matrix(1.24711,0,0,1.24711,-632.598,-850.838)"
         id="g103"><g
           transform="matrix(-0.317936,-4.02872e-17,6.96604e-18,-0.0588562,3373.92,4178.22)"
           id="g63"><path
             d="M3483.65,3546.4C3483.65,2620.02 3344.42,1867.92 3172.93,1867.92L1947.07,1867.92C1775.58,1867.92 1636.35,2620.02 1636.35,3546.4C1636.35,3855.19 1682.76,4105.89 1739.92,4105.89L3380.08,4105.89C3437.24,4105.89 3483.65,3855.19 3483.65,3546.4Z"
             style="fill:rgb(250,250,250);"
             id="path61" /></g><g
           transform="matrix(0.801855,0,0,0.801855,507.252,682.248)"
           id="g67"><path
             d="M3512.23,2829.77C3512.23,2304.22 3085.55,1877.54 2560,1877.54C2034.45,1877.54 1607.77,2304.22 1607.77,2829.77L1607.77,3530.48C1607.77,3793.25 1821.11,4006.59 2083.89,4006.59L3036.11,4006.59C3298.89,4006.59 3512.23,3793.25 3512.23,3530.48L3512.23,2829.77ZM3271.14,2820.72C3271.14,2449.33 2969.63,2147.81 2598.24,2147.81L2521.76,2147.81C2150.37,2147.81 1848.86,2449.33 1848.86,2820.72L1848.86,2868.78C1848.86,3001.42 1956.54,3109.1 2089.18,3109.1L3030.82,3109.1C3163.46,3109.1 3271.14,3001.42 3271.14,2868.78L3271.14,2820.72Z"
             style="fill:rgb(250,250,250);"
             id="path65" /></g><g
           transform="matrix(1.14324,0,0,1.14324,-366.692,-376.679)"
           id="g75"><g
             transform="matrix(1,0,0,0.706182,0,592.405)"
             id="g71"><rect
               x="2514.35"
               y="2076.05"
               width="91.302"
               height="232.038"
               style="fill:rgb(250,250,250);"
               id="rect69" /></g><circle
             cx="2560"
             cy="2068.33"
             r="72.074"
             style="fill:rgb(250,250,250);"
             id="circle73" /></g><g
           transform="matrix(1,0,0,1,0,107.758)"
           id="g79"><circle
             cx="2220.31"
             cy="2784.18"
             r="139.495"
             style="fill:rgb(250,250,250);"
             id="circle77" /></g><g
           transform="matrix(1,0,0,1,0,107.758)"
           id="g83"><circle
             cx="2220.31"
             cy="2784.18"
             r="139.495"
             style="fill:rgb(250,250,250);"
             id="circle81" /></g><g
           transform="matrix(1,0,0,1,695.793,107.758)"
           id="g87"><circle
             cx="2220.31"
             cy="2784.18"
             r="139.495"
             style="fill:rgb(250,250,250);"
             id="circle85" /></g><path
           d="M3472.4,3180.29C3472.4,3098.13 3405.7,3031.43 3323.55,3031.43C3241.39,3031.43 3174.69,3098.13 3174.69,3180.29L3174.69,3281.71C3174.69,3363.87 3241.39,3430.57 3323.55,3430.57C3405.7,3430.57 3472.4,3363.87 3472.4,3281.71L3472.4,3180.29Z"
           style="fill:rgb(250,250,250);"
           id="path89" /><g
           transform="matrix(1,0,0,1,-1527.09,0)"
           id="g93"><path
             d="M3472.4,3180.29C3472.4,3098.13 3405.7,3031.43 3323.55,3031.43C3241.39,3031.43 3174.69,3098.13 3174.69,3180.29L3174.69,3281.71C3174.69,3363.87 3241.39,3430.57 3323.55,3430.57C3405.7,3430.57 3472.4,3363.87 3472.4,3281.71L3472.4,3180.29Z"
             style="fill:rgb(250,250,250);"
             id="path91" /></g><g
           transform="matrix(1.88524,0,0,1,-3095.11,-50.7128)"
           id="g97"><path
             d="M3483.65,3272.96C3483.65,3249.8 3473.68,3231 3461.39,3231C3449.11,3231 3439.13,3249.8 3439.13,3272.96L3439.13,3733.73C3439.13,3756.89 3449.11,3775.69 3461.39,3775.69C3473.68,3775.69 3483.65,3756.89 3483.65,3733.73L3483.65,3272.96Z"
             style="fill:rgb(250,250,250);"
             id="path95" /></g><g
           transform="matrix(1.88524,0,0,1,-4835.99,-50.7128)"
           id="g101"><path
             d="M3483.65,3272.96C3483.65,3249.8 3473.68,3231 3461.39,3231C3449.11,3231 3439.13,3249.8 3439.13,3272.96L3439.13,3733.73C3439.13,3756.89 3449.11,3775.69 3461.39,3775.69C3473.68,3775.69 3483.65,3756.89 3483.65,3733.73L3483.65,3272.96Z"
             style="fill:rgb(250,250,250);"
             id="path99" /></g></g></g></g><g
     id="Bot-c"
     serif:id="Bot c"
     transform="matrix(0.93082,0,0,0.93082,173.565,1585.25)"><g
       transform="matrix(1,0,0,1,1949.57,-9.09495e-13)"
       id="g110"><rect
         x="131.251"
         y="1099.98"
         width="856.103"
         height="856.103"
         style="fill:none;"
         id="rect108" /></g><g
       transform="matrix(0.266067,0,0,0.266067,1827.74,733.315)"
       id="g158"><circle
         cx="2560"
         cy="2986.9"
         r="1608.81"
         style="fill:url(#_Linear3);"
         id="circle112" /><g
         transform="matrix(1.24711,0,0,1.24711,-632.598,-850.838)"
         id="g156"><g
           transform="matrix(-0.317936,-4.02872e-17,6.96604e-18,-0.0588562,3373.92,4178.22)"
           id="g116"><path
             d="M3483.65,3546.4C3483.65,2620.02 3344.42,1867.92 3172.93,1867.92L1947.07,1867.92C1775.58,1867.92 1636.35,2620.02 1636.35,3546.4C1636.35,3855.19 1682.76,4105.89 1739.92,4105.89L3380.08,4105.89C3437.24,4105.89 3483.65,3855.19 3483.65,3546.4Z"
             style="fill:rgb(250,250,250);"
             id="path114" /></g><g
           transform="matrix(0.801855,0,0,0.801855,507.252,682.248)"
           id="g120"><path
             d="M3512.23,2829.77C3512.23,2304.22 3085.55,1877.54 2560,1877.54C2034.45,1877.54 1607.77,2304.22 1607.77,2829.77L1607.77,3530.48C1607.77,3793.25 1821.11,4006.59 2083.89,4006.59L3036.11,4006.59C3298.89,4006.59 3512.23,3793.25 3512.23,3530.48L3512.23,2829.77ZM3271.14,2820.72C3271.14,2449.33 2969.63,2147.81 2598.24,2147.81L2521.76,2147.81C2150.37,2147.81 1848.86,2449.33 1848.86,2820.72L1848.86,2868.78C1848.86,3001.42 1956.54,3109.1 2089.18,3109.1L3030.82,3109.1C3163.46,3109.1 3271.14,3001.42 3271.14,2868.78L3271.14,2820.72Z"
             style="fill:rgb(250,250,250);"
             id="path118" /></g><g
           transform="matrix(1.14324,0,0,1.14324,-366.692,-376.679)"
           id="g128"><g
             transform="matrix(1,0,0,0.706182,0,592.405)"
             id="g124"><rect
               x="2514.35"
               y="2076.05"
               width="91.302"
               height="232.038"
               style="fill:rgb(250,250,250);"
               id="rect122" /></g><circle
             cx="2560"
             cy="2068.33"
             r="72.074"
             style="fill:rgb(250,250,250);"
             id="circle126" /></g><g
           transform="matrix(1,0,0,1,0,107.758)"
           id="g132"><circle
             cx="2220.31"
             cy="2784.18"
             r="139.495"
             style="fill:rgb(250,250,250);"
             id="circle130" /></g><g
           transform="matrix(1,0,0,1,0,107.758)"
           id="g136"><circle
             cx="2220.31"
             cy="2784.18"
             r="139.495"
             style="fill:rgb(250,250,250);"
             id="circle134" /></g><g
           transform="matrix(1,0,0,1,695.793,107.758)"
           id="g140"><circle
             cx="2220.31"
             cy="2784.18"
             r="139.495"
             style="fill:rgb(250,250,250);"
             id="circle138" /></g><path
           d="M3472.4,3180.29C3472.4,3098.13 3405.7,3031.43 3323.55,3031.43C3241.39,3031.43 3174.69,3098.13 3174.69,3180.29L3174.69,3281.71C3174.69,3363.87 3241.39,3430.57 3323.55,3430.57C3405.7,3430.57 3472.4,3363.87 3472.4,3281.71L3472.4,3180.29Z"
           style="fill:rgb(250,250,250);"
           id="path142" /><g
           transform="matrix(1,0,0,1,-1527.09,0)"
           id="g146"><path
             d="M3472.4,3180.29C3472.4,3098.13 3405.7,3031.43 3323.55,3031.43C3241.39,3031.43 3174.69,3098.13 3174.69,3180.29L3174.69,3281.71C3174.69,3363.87 3241.39,3430.57 3323.55,3430.57C3405.7,3430.57 3472.4,3363.87 3472.4,3281.71L3472.4,3180.29Z"
             style="fill:rgb(250,250,250);"
             id="path144" /></g><g
           transform="matrix(1.88524,0,0,1,-3095.11,-50.7128)"
           id="g150"><path
             d="M3483.65,3272.96C3483.65,3249.8 3473.68,3231 3461.39,3231C3449.11,3231 3439.13,3249.8 3439.13,3272.96L3439.13,3733.73C3439.13,3756.89 3449.11,3775.69 3461.39,3775.69C3473.68,3775.69 3483.65,3756.89 3483.65,3733.73L3483.65,3272.96Z"
             style="fill:rgb(250,250,250);"
             id="path148" /></g><g
           transform="matrix(1.88524,0,0,1,-4835.99,-50.7128)"
           id="g154"><path
             d="M3483.65,3272.96C3483.65,3249.8 3473.68,3231 3461.39,3231C3449.11,3231 3439.13,3249.8 3439.13,3272.96L3439.13,3733.73C3439.13,3756.89 3449.11,3775.69 3461.39,3775.69C3473.68,3775.69 3483.65,3756.89 3483.65,3733.73L3483.65,3272.96Z"
             style="fill:rgb(250,250,250);"
             id="path152" /></g></g></g></g><g
     id="Bot-b"
     serif:id="Bot b"
     transform="matrix(0.93082,0,0,0.93082,173.565,1585.25)"><g
       transform="matrix(1,0,0,1,974.783,0)"
       id="g163"><rect
         x="131.251"
         y="1099.98"
         width="856.103"
         height="856.103"
         style="fill:none;"
         id="rect161" /></g><g
       transform="matrix(0.266067,0,0,0.266067,852.953,733.315)"
       id="g211"><circle
         cx="2560"
         cy="2986.9"
         r="1608.81"
         style="fill:url(#_Linear4);"
         id="circle165" /><g
         transform="matrix(1.24711,0,0,1.24711,-632.598,-850.838)"
         id="g209"><g
           transform="matrix(-0.317936,-4.02872e-17,6.96604e-18,-0.0588562,3373.92,4178.22)"
           id="g169"><path
             d="M3483.65,3546.4C3483.65,2620.02 3344.42,1867.92 3172.93,1867.92L1947.07,1867.92C1775.58,1867.92 1636.35,2620.02 1636.35,3546.4C1636.35,3855.19 1682.76,4105.89 1739.92,4105.89L3380.08,4105.89C3437.24,4105.89 3483.65,3855.19 3483.65,3546.4Z"
             style="fill:rgb(250,250,250);"
             id="path167" /></g><g
           transform="matrix(0.801855,0,0,0.801855,507.252,682.248)"
           id="g173"><path
             d="M3512.23,2829.77C3512.23,2304.22 3085.55,1877.54 2560,1877.54C2034.45,1877.54 1607.77,2304.22 1607.77,2829.77L1607.77,3530.48C1607.77,3793.25 1821.11,4006.59 2083.89,4006.59L3036.11,4006.59C3298.89,4006.59 3512.23,3793.25 3512.23,3530.48L3512.23,2829.77ZM3271.14,2820.72C3271.14,2449.33 2969.63,2147.81 2598.24,2147.81L2521.76,2147.81C2150.37,2147.81 1848.86,2449.33 1848.86,2820.72L1848.86,2868.78C1848.86,3001.42 1956.54,3109.1 2089.18,3109.1L3030.82,3109.1C3163.46,3109.1 3271.14,3001.42 3271.14,2868.78L3271.14,2820.72Z"
             style="fill:rgb(250,250,250);"
             id="path171" /></g><g
           transform="matrix(1.14324,0,0,1.14324,-366.692,-376.679)"
           id="g181"><g
             transform="matrix(1,0,0,0.706182,0,592.405)"
             id="g177"><rect
               x="2514.35"
               y="2076.05"
               width="91.302"
               height="232.038"
               style="fill:rgb(250,250,250);"
               id="rect175" /></g><circle
             cx="2560"
             cy="2068.33"
             r="72.074"
             style="fill:rgb(250,250,250);"
             id="circle179" /></g><g
           transform="matrix(1,0,0,1,0,107.758)"
           id="g185"><circle
             cx="2220.31"
             cy="2784.18"
             r="139.495"
             style="fill:rgb(250,250,250);"
             id="circle183" /></g><g
           transform="matrix(1,0,0,1,0,107.758)"
           id="g189"><circle
             cx="2220.31"
             cy="2784.18"
             r="139.495"
             style="fill:rgb(250,250,250);"
             id="circle187" /></g><g
           transform="matrix(1,0,0,1,695.793,107.758)"
           id="g193"><circle
             cx="2220.31"
             cy="2784.18"
             r="139.495"
             style="fill:rgb(250,250,250);"
             id="circle191" /></g><path
           d="M3472.4,3180.29C3472.4,3098.13 3405.7,3031.43 3323.55,3031.43C3241.39,3031.43 3174.69,3098.13 3174.69,3180.29L3174.69,3281.71C3174.69,3363.87 3241.39,3430.57 3323.55,3430.57C3405.7,3430.57 3472.4,3363.87 3472.4,3281.71L3472.4,3180.29Z"
           style="fill:rgb(250,250,250);"
           id="path195" /><g
           transform="matrix(1,0,0,1,-1527.09,0)"
           id="g199"><path
             d="M3472.4,3180.29C3472.4,3098.13 3405.7,3031.43 3323.55,3031.43C3241.39,3031.43 3174.69,3098.13 3174.69,3180.29L3174.69,3281.71C3174.69,3363.87 3241.39,3430.57 3323.55,3430.57C3405.7,3430.57 3472.4,3363.87 3472.4,3281.71L3472.4,3180.29Z"
             style="fill:rgb(250,250,250);"
             id="path197" /></g><g
           transform="matrix(1.88524,0,0,1,-3095.11,-50.7128)"
           id="g203"><path
             d="M3483.65,3272.96C3483.65,3249.8 3473.68,3231 3461.39,3231C3449.11,3231 3439.13,3249.8 3439.13,3272.96L3439.13,3733.73C3439.13,3756.89 3449.11,3775.69 3461.39,3775.69C3473.68,3775.69 3483.65,3756.89 3483.65,3733.73L3483.65,3272.96Z"
             style="fill:rgb(250,250,250);"
             id="path201" /></g><g
           transform="matrix(1.88524,0,0,1,-4835.99,-50.7128)"
           id="g207"><path
             d="M3483.65,3272.96C3483.65,3249.8 3473.68,3231 3461.39,3231C3449.11,3231 3439.13,3249.8 3439.13,3272.96L3439.13,3733.73C3439.13,3756.89 3449.11,3775.69 3461.39,3775.69C3473.68,3775.69 3483.65,3756.89 3483.65,3733.73L3483.65,3272.96Z"
             style="fill:rgb(250,250,250);"
             id="path205" /></g></g></g></g><g
     id="Bot-a"
     serif:id="Bot a"
     transform="matrix(0.93082,0,0,0.93082,173.565,1585.25)"><rect
       x="131.251"
       y="1099.98"
       width="856.103"
       height="856.103"
       style="fill:none;"
       id="rect214" /><g
       transform="matrix(0.266067,0,0,0.266067,-121.83,733.315)"
       id="g262"><circle
         cx="2560"
         cy="2986.9"
         r="1608.81"
         style="fill:url(#_Linear5);"
         id="circle216" /><g
         transform="matrix(1.24711,0,0,1.24711,-632.598,-850.838)"
         id="g260"><g
           transform="matrix(-0.317936,-4.02872e-17,6.96604e-18,-0.0588562,3373.92,4178.22)"
           id="g220"><path
             d="M3483.65,3546.4C3483.65,2620.02 3344.42,1867.92 3172.93,1867.92L1947.07,1867.92C1775.58,1867.92 1636.35,2620.02 1636.35,3546.4C1636.35,3855.19 1682.76,4105.89 1739.92,4105.89L3380.08,4105.89C3437.24,4105.89 3483.65,3855.19 3483.65,3546.4Z"
             style="fill:rgb(250,250,250);"
             id="path218" /></g><g
           transform="matrix(0.801855,0,0,0.801855,507.252,682.248)"
           id="g224"><path
             d="M3512.23,2829.77C3512.23,2304.22 3085.55,1877.54 2560,1877.54C2034.45,1877.54 1607.77,2304.22 1607.77,2829.77L1607.77,3530.48C1607.77,3793.25 1821.11,4006.59 2083.89,4006.59L3036.11,4006.59C3298.89,4006.59 3512.23,3793.25 3512.23,3530.48L3512.23,2829.77ZM3271.14,2820.72C3271.14,2449.33 2969.63,2147.81 2598.24,2147.81L2521.76,2147.81C2150.37,2147.81 1848.86,2449.33 1848.86,2820.72L1848.86,2868.78C1848.86,3001.42 1956.54,3109.1 2089.18,3109.1L3030.82,3109.1C3163.46,3109.1 3271.14,3001.42 3271.14,2868.78L3271.14,2820.72Z"
             style="fill:rgb(250,250,250);"
             id="path222" /></g><g
           transform="matrix(1.14324,0,0,1.14324,-366.692,-376.679)"
           id="g232"><g
             transform="matrix(1,0,0,0.706182,0,592.405)"
             id="g228"><rect
               x="2514.35"
               y="2076.05"
               width="91.302"
               height="232.038"
               style="fill:rgb(250,250,250);"
               id="rect226" /></g><circle
             cx="2560"
             cy="2068.33"
             r="72.074"
             style="fill:rgb(250,250,250);"
             id="circle230" /></g><g
           transform="matrix(1,0,0,1,0,107.758)"
           id="g236"><circle
             cx="2220.31"
             cy="2784.18"
             r="139.495"
             style="fill:rgb(250,250,250);"
             id="circle234" /></g><g
           transform="matrix(1,0,0,1,0,107.758)"
           id="g240"><circle
             cx="2220.31"
             cy="2784.18"
             r="139.495"
             style="fill:rgb(250,250,250);"
             id="circle238" /></g><g
           transform="matrix(1,0,0,1,695.793,107.758)"
           id="g244"><circle
             cx="2220.31"
             cy="2784.18"
             r="139.495"
             style="fill:rgb(250,250,250);"
             id="circle242" /></g><path
           d="M3472.4,3180.29C3472.4,3098.13 3405.7,3031.43 3323.55,3031.43C3241.39,3031.43 3174.69,3098.13 3174.69,3180.29L3174.69,3281.71C3174.69,3363.87 3241.39,3430.57 3323.55,3430.57C3405.7,3430.57 3472.4,3363.87 3472.4,3281.71L3472.4,3180.29Z"
           style="fill:rgb(250,250,250);"
           id="path246" /><g
           transform="matrix(1,0,0,1,-1527.09,0)"
           id="g250"><path
             d="M3472.4,3180.29C3472.4,3098.13 3405.7,3031.43 3323.55,3031.43C3241.39,3031.43 3174.69,3098.13 3174.69,3180.29L3174.69,3281.71C3174.69,3363.87 3241.39,3430.57 3323.55,3430.57C3405.7,3430.57 3472.4,3363.87 3472.4,3281.71L3472.4,3180.29Z"
             style="fill:rgb(250,250,250);"
             id="path248" /></g><g
           transform="matrix(1.88524,0,0,1,-3095.11,-50.7128)"
           id="g254"><path
             d="M3483.65,3272.96C3483.65,3249.8 3473.68,3231 3461.39,3231C3449.11,3231 3439.13,3249.8 3439.13,3272.96L3439.13,3733.73C3439.13,3756.89 3449.11,3775.69 3461.39,3775.69C3473.68,3775.69 3483.65,3756.89 3483.65,3733.73L3483.65,3272.96Z"
             style="fill:rgb(250,250,250);"
             id="path252" /></g><g
           transform="matrix(1.88524,0,0,1,-4835.99,-50.7128)"
           id="g258"><path
             d="M3483.65,3272.96C3483.65,3249.8 3473.68,3231 3461.39,3231C3449.11,3231 3439.13,3249.8 3439.13,3272.96L3439.13,3733.73C3439.13,3756.89 3449.11,3775.69 3461.39,3775.69C3473.68,3775.69 3483.65,3756.89 3483.65,3733.73L3483.65,3272.96Z"
             style="fill:rgb(250,250,250);"
             id="path256" /></g></g></g></g><g
     id="Bot-5"
     serif:id="Bot 5"
     transform="matrix(0.93082,0,0,0.93082,173.565,1585.25)"><g
       transform="matrix(1,0,0,1,3899.13,-961.682)"
       id="g267"><rect
         x="131.251"
         y="1099.98"
         width="856.103"
         height="856.103"
         style="fill:none;"
         id="rect265" /></g><g
       transform="matrix(0.222784,0,0,0.222784,3888.11,-3.97708)"
       id="g281"><circle
         cx="2560"
         cy="2560"
         r="1921.38"
         style="fill:url(#_Linear6);"
         id="circle269" /><g
         transform="matrix(4.82226,0,0,4.82226,-18289.4,-4245.74)"
         id="g273"><path
           d="M4273.89,1155.31L4292.97,1102.17C4297.61,1089.26 4309.85,1080.65 4323.56,1080.65C4337.28,1080.65 4349.52,1089.26 4354.15,1102.17L4373.24,1155.31C4514.32,1155.56 4628.78,1270.17 4628.78,1411.32C4628.78,1552.61 4514.06,1667.33 4372.77,1667.33L4274.36,1667.33C4133.06,1667.33 4018.34,1552.61 4018.34,1411.32C4018.34,1270.17 4132.81,1155.56 4273.89,1155.31ZM4572.06,1411.32C4572.06,1353.05 4524.76,1305.74 4466.49,1305.74L4180.64,1305.74C4122.37,1305.74 4075.06,1353.05 4075.06,1411.32C4075.06,1469.59 4122.37,1516.89 4180.64,1516.89L4466.49,1516.89C4524.76,1516.89 4572.06,1469.59 4572.06,1411.32Z"
           style="fill:rgb(241,241,241);"
           id="path271" /></g><circle
         cx="1870.78"
         cy="2560"
         r="384.89"
         style="fill:rgb(241,241,241);"
         id="circle275" /><g
         transform="matrix(1,0,0,1,1378.44,0)"
         id="g279"><circle
           cx="1870.78"
           cy="2560"
           r="384.89"
           style="fill:rgb(241,241,241);"
           id="circle277" /></g></g></g><g
     id="Bot-4"
     serif:id="Bot 4"
     transform="matrix(0.93082,0,0,0.93082,173.565,1585.25)"><g
       transform="matrix(1,0,0,1,2924.35,-961.682)"
       id="g286"><rect
         x="131.251"
         y="1099.98"
         width="856.103"
         height="856.103"
         style="fill:none;"
         id="rect284" /></g><g
       transform="matrix(0.222784,0,0,0.222784,2913.32,-3.97708)"
       id="g300"><circle
         cx="2560"
         cy="2560"
         r="1921.38"
         style="fill:url(#_Linear7);"
         id="circle288" /><g
         transform="matrix(4.82226,0,0,4.82226,-13913.9,-4245.74)"
         id="g292"><path
           d="M3366.54,1155.31L3385.62,1102.17C3390.26,1089.26 3402.5,1080.65 3416.22,1080.65C3429.93,1080.65 3442.17,1089.26 3446.81,1102.17L3465.89,1155.31C3606.97,1155.56 3721.43,1270.17 3721.43,1411.32C3721.43,1552.61 3606.72,1667.33 3465.42,1667.33L3367.01,1667.33C3225.71,1667.33 3111,1552.61 3111,1411.32C3111,1270.17 3225.46,1155.56 3366.54,1155.31ZM3664.72,1411.32C3664.72,1353.05 3617.41,1305.74 3559.14,1305.74L3273.29,1305.74C3215.02,1305.74 3167.72,1353.05 3167.72,1411.32C3167.72,1469.59 3215.02,1516.89 3273.29,1516.89L3559.14,1516.89C3617.41,1516.89 3664.72,1469.59 3664.72,1411.32Z"
           style="fill:rgb(241,241,241);"
           id="path290" /></g><circle
         cx="1870.78"
         cy="2560"
         r="384.89"
         style="fill:rgb(241,241,241);"
         id="circle294" /><g
         transform="matrix(1,0,0,1,1378.44,0)"
         id="g298"><circle
           cx="1870.78"
           cy="2560"
           r="384.89"
           style="fill:rgb(241,241,241);"
           id="circle296" /></g></g></g><g
     id="Bot-3"
     serif:id="Bot 3"
     transform="matrix(0.93082,0,0,0.93082,173.565,1585.25)"><g
       transform="matrix(1,0,0,1,1949.57,-961.682)"
       id="g305"><rect
         x="131.251"
         y="1099.98"
         width="856.103"
         height="856.103"
         style="fill:none;"
         id="rect303" /></g><g
       transform="matrix(0.222784,0,0,0.222784,1938.54,-3.97708)"
       id="g319"><circle
         cx="2560"
         cy="2560"
         r="1921.38"
         style="fill:url(#_Linear8);"
         id="circle307" /><g
         transform="matrix(4.82226,0,0,4.82226,-9538.42,-4245.74)"
         id="g311"><path
           d="M2459.19,1155.31L2478.28,1102.17C2482.91,1089.26 2495.15,1080.65 2508.87,1080.65C2522.58,1080.65 2534.82,1089.26 2539.46,1102.17L2558.54,1155.31C2699.62,1155.56 2814.09,1270.17 2814.09,1411.32C2814.09,1552.61 2699.37,1667.33 2558.07,1667.33L2459.66,1667.33C2318.37,1667.33 2203.65,1552.61 2203.65,1411.32C2203.65,1270.17 2318.11,1155.56 2459.19,1155.31ZM2757.37,1411.32C2757.37,1353.05 2710.06,1305.74 2651.79,1305.74L2365.94,1305.74C2307.67,1305.74 2260.37,1353.05 2260.37,1411.32C2260.37,1469.59 2307.67,1516.89 2365.94,1516.89L2651.79,1516.89C2710.06,1516.89 2757.37,1469.59 2757.37,1411.32Z"
           style="fill:rgb(241,241,241);"
           id="path309" /></g><circle
         cx="1870.78"
         cy="2560"
         r="384.89"
         style="fill:rgb(241,241,241);"
         id="circle313" /><g
         transform="matrix(1,0,0,1,1378.44,0)"
         id="g317"><circle
           cx="1870.78"
           cy="2560"
           r="384.89"
           style="fill:rgb(241,241,241);"
           id="circle315" /></g></g></g><g
     id="Bot-2"
     serif:id="Bot 2"
     transform="matrix(0.93082,0,0,0.93082,173.565,1585.25)"><g
       transform="matrix(1,0,0,1,974.783,-961.682)"
       id="g324"><rect
         x="131.251"
         y="1099.98"
         width="856.103"
         height="856.103"
         style="fill:none;"
         id="rect322" /></g><g
       transform="matrix(0.222784,0,0,0.222784,963.759,-3.97708)"
       id="g338"><circle
         cx="2560"
         cy="2560"
         r="1921.38"
         style="fill:url(#_Linear9);"
         id="circle326" /><g
         transform="matrix(4.82226,0,0,4.82226,-5162.96,-4245.74)"
         id="g330"><path
           d="M1551.85,1155.31L1570.93,1102.17C1575.57,1089.26 1587.81,1080.65 1601.52,1080.65C1615.24,1080.65 1627.48,1089.26 1632.11,1102.17L1651.2,1155.31C1792.28,1155.56 1906.74,1270.17 1906.74,1411.32C1906.74,1552.61 1792.02,1667.33 1650.73,1667.33L1552.32,1667.33C1411.02,1667.33 1296.3,1552.61 1296.3,1411.32C1296.3,1270.17 1410.77,1155.56 1551.85,1155.31ZM1850.02,1411.32C1850.02,1353.05 1802.71,1305.74 1744.45,1305.74L1458.6,1305.74C1400.33,1305.74 1353.02,1353.05 1353.02,1411.32C1353.02,1469.59 1400.33,1516.89 1458.6,1516.89L1744.45,1516.89C1802.71,1516.89 1850.02,1469.59 1850.02,1411.32Z"
           style="fill:rgb(241,241,241);"
           id="path328" /></g><circle
         cx="1870.78"
         cy="2560"
         r="384.89"
         style="fill:rgb(241,241,241);"
         id="circle332" /><g
         transform="matrix(1,0,0,1,1378.44,0)"
         id="g336"><circle
           cx="1870.78"
           cy="2560"
           r="384.89"
           style="fill:rgb(241,241,241);"
           id="circle334" /></g></g></g><g
     id="Bot-1"
     serif:id="Bot 1"
     transform="matrix(0.93082,0,0,0.93082,173.565,1585.25)"><g
       transform="matrix(1,0,0,1,0,-961.682)"
       id="g343"><rect
         x="131.251"
         y="1099.98"
         width="856.103"
         height="856.103"
         style="fill:none;"
         id="rect341" /></g><g
       transform="matrix(0.222784,0,0,0.222784,-11.0239,-3.97708)"
       id="g357"><circle
         cx="2560"
         cy="2560"
         r="1921.38"
         style="fill:url(#_Linear10);"
         id="circle345" /><g
         transform="matrix(4.82226,0,0,4.82226,-787.492,-4245.74)"
         id="g349"><path
           d="M644.5,1155.31L663.584,1102.17C668.22,1089.26 680.459,1080.65 694.174,1080.65C707.89,1080.65 720.129,1089.26 724.765,1102.17L743.849,1155.31C884.929,1155.56 999.392,1270.17 999.392,1411.32C999.392,1552.61 884.677,1667.33 743.38,1667.33L644.969,1667.33C503.672,1667.33 388.957,1552.61 388.957,1411.32C388.957,1270.17 503.42,1155.56 644.5,1155.31ZM942.674,1411.32C942.674,1353.05 895.368,1305.74 837.099,1305.74L551.249,1305.74C492.981,1305.74 445.674,1353.05 445.674,1411.32C445.674,1469.59 492.981,1516.89 551.249,1516.89L837.099,1516.89C895.368,1516.89 942.674,1469.59 942.674,1411.32Z"
           style="fill:rgb(241,241,241);"
           id="path347" /></g><circle
         cx="1870.78"
         cy="2560"
         r="384.89"
         style="fill:rgb(241,241,241);"
         id="circle351" /><g
         transform="matrix(1,0,0,1,1378.44,0)"
         id="g355"><circle
           cx="1870.78"
           cy="2560"
           r="384.89"
           style="fill:rgb(241,241,241);"
           id="circle353" /></g></g></g><g
     transform="matrix(1,0,0,1,0,-290.074)"
     id="g444"><g
       transform="matrix(1,0,0,1,328.697,1026.79)"
       id="g416"><g
         transform="matrix(423.002,0,0,423.002,430,531)"
         id="g362"><path
           d="M0.334,0.01C0.281,0.01 0.228,0.001 0.177,-0.018C0.126,-0.036 0.079,-0.064 0.037,-0.102L0.128,-0.211C0.16,-0.185 0.193,-0.164 0.227,-0.149C0.26,-0.134 0.297,-0.126 0.337,-0.126C0.369,-0.126 0.394,-0.132 0.411,-0.143C0.429,-0.155 0.438,-0.171 0.438,-0.192L0.438,-0.194C0.438,-0.204 0.436,-0.213 0.432,-0.221C0.429,-0.228 0.422,-0.235 0.411,-0.242C0.401,-0.249 0.387,-0.255 0.368,-0.262C0.35,-0.269 0.326,-0.276 0.297,-0.283C0.261,-0.292 0.229,-0.301 0.2,-0.312C0.172,-0.323 0.147,-0.336 0.127,-0.352C0.107,-0.367 0.092,-0.387 0.081,-0.41C0.07,-0.433 0.064,-0.462 0.064,-0.497L0.064,-0.499C0.064,-0.531 0.07,-0.56 0.082,-0.586C0.094,-0.611 0.111,-0.633 0.132,-0.652C0.154,-0.671 0.179,-0.685 0.209,-0.695C0.239,-0.705 0.272,-0.71 0.308,-0.71C0.359,-0.71 0.406,-0.702 0.45,-0.687C0.493,-0.672 0.532,-0.65 0.568,-0.621L0.488,-0.505C0.457,-0.526 0.426,-0.543 0.396,-0.556C0.366,-0.568 0.336,-0.574 0.306,-0.574C0.276,-0.574 0.254,-0.568 0.238,-0.557C0.224,-0.545 0.216,-0.53 0.216,-0.513L0.216,-0.511C0.216,-0.5 0.218,-0.49 0.223,-0.482C0.227,-0.473 0.235,-0.466 0.246,-0.459C0.257,-0.452 0.273,-0.446 0.293,-0.44C0.312,-0.434 0.337,-0.427 0.367,-0.419C0.403,-0.41 0.434,-0.399 0.462,-0.388C0.49,-0.376 0.513,-0.362 0.532,-0.345C0.551,-0.329 0.566,-0.31 0.575,-0.288C0.585,-0.266 0.59,-0.24 0.59,-0.209L0.59,-0.207C0.59,-0.172 0.584,-0.141 0.571,-0.115C0.559,-0.087 0.541,-0.065 0.518,-0.047C0.496,-0.028 0.469,-0.014 0.438,-0.005C0.407,0.005 0.372,0.01 0.334,0.01Z"
           style="fill:rgb(49,49,49);fill-rule:nonzero;"
           id="path360" /></g><g
         transform="matrix(423.002,0,0,423.002,700.721,531)"
         id="g366"><path
           d="M0.075,-0.536L0.227,-0.536L0.227,0L0.075,0L0.075,-0.536ZM0.071,-0.73L0.231,-0.73L0.231,-0.595L0.071,-0.595L0.071,-0.73Z"
           style="fill:rgb(49,49,49);fill-rule:nonzero;"
           id="path364" /></g><g
         transform="matrix(423.002,0,0,423.002,828.468,531)"
         id="g370"><path
           d="M0.068,-0.536L0.22,-0.536L0.22,-0.459C0.229,-0.471 0.238,-0.482 0.249,-0.492C0.259,-0.503 0.27,-0.512 0.283,-0.52C0.296,-0.528 0.31,-0.534 0.326,-0.539C0.341,-0.544 0.359,-0.546 0.378,-0.546C0.413,-0.546 0.444,-0.539 0.469,-0.524C0.495,-0.509 0.515,-0.488 0.529,-0.46C0.552,-0.489 0.578,-0.51 0.607,-0.524C0.636,-0.539 0.668,-0.546 0.705,-0.546C0.762,-0.546 0.806,-0.529 0.838,-0.496C0.87,-0.463 0.886,-0.414 0.886,-0.349L0.886,0L0.734,0L0.734,-0.298C0.734,-0.334 0.726,-0.361 0.711,-0.38C0.696,-0.398 0.674,-0.407 0.645,-0.407C0.616,-0.407 0.594,-0.398 0.578,-0.38C0.561,-0.361 0.553,-0.334 0.553,-0.298L0.553,0L0.401,0L0.401,-0.298C0.401,-0.334 0.393,-0.361 0.378,-0.38C0.363,-0.398 0.341,-0.407 0.312,-0.407C0.283,-0.407 0.261,-0.398 0.245,-0.38C0.228,-0.361 0.22,-0.334 0.22,-0.298L0.22,0L0.068,0L0.068,-0.536Z"
           style="fill:rgb(49,49,49);fill-rule:nonzero;"
           id="path368" /></g><g
         transform="matrix(423.002,0,0,423.002,1230.32,531)"
         id="g374"><path
           d="M0.348,-0.119C0.366,-0.119 0.383,-0.123 0.399,-0.13C0.414,-0.137 0.428,-0.147 0.44,-0.16C0.452,-0.172 0.462,-0.188 0.469,-0.206C0.475,-0.224 0.479,-0.244 0.479,-0.267L0.479,-0.269C0.479,-0.291 0.475,-0.311 0.469,-0.33C0.462,-0.348 0.452,-0.364 0.44,-0.377C0.428,-0.39 0.414,-0.4 0.399,-0.406C0.383,-0.413 0.366,-0.417 0.348,-0.417C0.33,-0.417 0.313,-0.413 0.298,-0.406C0.282,-0.4 0.268,-0.39 0.257,-0.377C0.245,-0.364 0.235,-0.348 0.229,-0.33C0.222,-0.311 0.218,-0.291 0.218,-0.269L0.218,-0.267C0.218,-0.245 0.222,-0.225 0.229,-0.206C0.235,-0.188 0.245,-0.172 0.257,-0.16C0.268,-0.147 0.282,-0.137 0.298,-0.13C0.313,-0.123 0.33,-0.119 0.348,-0.119ZM0.068,-0.536L0.22,-0.536L0.22,-0.459C0.239,-0.484 0.261,-0.505 0.288,-0.522C0.314,-0.538 0.347,-0.546 0.387,-0.546C0.418,-0.546 0.449,-0.54 0.478,-0.528C0.507,-0.516 0.533,-0.498 0.556,-0.474C0.579,-0.451 0.597,-0.422 0.611,-0.388C0.624,-0.353 0.631,-0.314 0.631,-0.269L0.631,-0.267C0.631,-0.222 0.624,-0.183 0.611,-0.149C0.597,-0.114 0.579,-0.085 0.557,-0.062C0.534,-0.038 0.508,-0.02 0.479,-0.008C0.45,0.004 0.419,0.01 0.387,0.01C0.346,0.01 0.313,0.002 0.286,-0.014C0.26,-0.03 0.238,-0.049 0.22,-0.07L0.22,0.16L0.068,0.16L0.068,-0.536Z"
           style="fill:rgb(49,49,49);fill-rule:nonzero;"
           id="path372" /></g><g
         transform="matrix(423.002,0,0,423.002,1515.85,531)"
         id="g378"><rect
           x="0.075"
           y="-0.73"
           width="0.152"
           height="0.73"
           style="fill:rgb(49,49,49);fill-rule:nonzero;"
           id="rect376" /></g><g
         transform="matrix(423.002,0,0,423.002,1643.59,531)"
         id="g382"><path
           d="M0.42,-0.31C0.415,-0.344 0.403,-0.372 0.384,-0.393C0.365,-0.413 0.339,-0.424 0.307,-0.424C0.275,-0.424 0.249,-0.414 0.23,-0.393C0.21,-0.372 0.197,-0.345 0.191,-0.31L0.42,-0.31ZM0.322,0.012C0.282,0.012 0.245,0.005 0.211,-0.008C0.176,-0.021 0.147,-0.04 0.122,-0.065C0.097,-0.09 0.077,-0.119 0.063,-0.153C0.049,-0.186 0.042,-0.224 0.042,-0.265L0.042,-0.267C0.042,-0.305 0.049,-0.341 0.062,-0.375C0.075,-0.409 0.093,-0.439 0.116,-0.464C0.139,-0.489 0.167,-0.509 0.2,-0.524C0.232,-0.539 0.268,-0.546 0.307,-0.546C0.352,-0.546 0.39,-0.538 0.423,-0.522C0.456,-0.506 0.483,-0.485 0.504,-0.458C0.526,-0.431 0.542,-0.4 0.553,-0.365C0.563,-0.33 0.568,-0.293 0.568,-0.255C0.568,-0.249 0.568,-0.243 0.568,-0.236C0.567,-0.229 0.567,-0.222 0.566,-0.215L0.193,-0.215C0.2,-0.18 0.216,-0.154 0.238,-0.137C0.262,-0.119 0.29,-0.11 0.324,-0.11C0.349,-0.11 0.372,-0.114 0.392,-0.123C0.412,-0.132 0.433,-0.146 0.454,-0.165L0.541,-0.088C0.516,-0.057 0.485,-0.032 0.449,-0.015C0.413,0.003 0.371,0.012 0.322,0.012Z"
           style="fill:rgb(49,49,49);fill-rule:nonzero;"
           id="path380" /></g><g
         transform="matrix(423.002,0,0,423.002,1902.89,531)"
         id="g386"><path
           d="M0.417,-0.135C0.451,-0.135 0.478,-0.141 0.497,-0.154C0.516,-0.166 0.526,-0.185 0.526,-0.211L0.526,-0.213C0.526,-0.236 0.517,-0.255 0.499,-0.269C0.481,-0.282 0.452,-0.289 0.412,-0.289L0.234,-0.289L0.234,-0.135L0.417,-0.135ZM0.376,-0.417C0.41,-0.417 0.437,-0.423 0.457,-0.435C0.477,-0.446 0.487,-0.465 0.487,-0.491L0.487,-0.493C0.487,-0.516 0.478,-0.534 0.461,-0.547C0.444,-0.559 0.419,-0.565 0.386,-0.565L0.234,-0.565L0.234,-0.417L0.376,-0.417ZM0.084,-0.7L0.408,-0.7C0.489,-0.7 0.55,-0.679 0.591,-0.638C0.623,-0.606 0.639,-0.566 0.639,-0.519L0.639,-0.517C0.639,-0.497 0.637,-0.479 0.632,-0.464C0.627,-0.449 0.62,-0.435 0.612,-0.423C0.603,-0.41 0.594,-0.399 0.583,-0.39C0.572,-0.381 0.56,-0.373 0.548,-0.366C0.588,-0.351 0.62,-0.33 0.643,-0.304C0.666,-0.277 0.678,-0.241 0.678,-0.194L0.678,-0.192C0.678,-0.16 0.672,-0.132 0.66,-0.108C0.647,-0.084 0.63,-0.064 0.607,-0.048C0.584,-0.032 0.556,-0.02 0.524,-0.012C0.491,-0.004 0.456,0 0.416,0L0.084,0L0.084,-0.7Z"
           style="fill:rgb(49,49,49);fill-rule:nonzero;"
           id="path384" /></g><g
         transform="matrix(423.002,0,0,423.002,2208.3,531)"
         id="g390"><path
           d="M0.333,-0.119C0.355,-0.119 0.375,-0.123 0.392,-0.131C0.408,-0.138 0.423,-0.149 0.435,-0.162C0.447,-0.175 0.456,-0.191 0.463,-0.209C0.469,-0.226 0.472,-0.245 0.472,-0.265L0.472,-0.267C0.472,-0.287 0.469,-0.306 0.462,-0.324C0.455,-0.341 0.446,-0.357 0.433,-0.371C0.42,-0.384 0.405,-0.395 0.388,-0.403C0.371,-0.411 0.352,-0.415 0.331,-0.415C0.309,-0.415 0.29,-0.411 0.273,-0.404C0.256,-0.396 0.241,-0.385 0.229,-0.372C0.217,-0.359 0.208,-0.343 0.202,-0.326C0.195,-0.308 0.192,-0.289 0.192,-0.269L0.192,-0.267C0.192,-0.247 0.195,-0.228 0.202,-0.211C0.209,-0.193 0.218,-0.177 0.231,-0.164C0.244,-0.15 0.259,-0.139 0.276,-0.131C0.293,-0.123 0.312,-0.119 0.333,-0.119ZM0.331,0.012C0.29,0.012 0.251,0.005 0.216,-0.01C0.181,-0.024 0.15,-0.043 0.125,-0.069C0.099,-0.094 0.079,-0.123 0.064,-0.157C0.049,-0.19 0.042,-0.226 0.042,-0.265L0.042,-0.267C0.042,-0.306 0.049,-0.342 0.064,-0.376C0.079,-0.409 0.099,-0.439 0.125,-0.464C0.151,-0.489 0.182,-0.509 0.217,-0.524C0.252,-0.539 0.291,-0.546 0.333,-0.546C0.374,-0.546 0.413,-0.539 0.448,-0.525C0.483,-0.51 0.514,-0.491 0.54,-0.466C0.565,-0.441 0.585,-0.411 0.6,-0.378C0.615,-0.344 0.622,-0.308 0.622,-0.269L0.622,-0.267C0.622,-0.228 0.615,-0.192 0.6,-0.159C0.585,-0.125 0.565,-0.095 0.539,-0.07C0.513,-0.045 0.482,-0.025 0.447,-0.01C0.412,0.005 0.373,0.012 0.331,0.012Z"
           style="fill:rgb(49,49,49);fill-rule:nonzero;"
           id="path388" /></g><g
         transform="matrix(423.002,0,0,423.002,2489.17,531)"
         id="g394"><path
           d="M0.249,0.009C0.226,0.009 0.204,0.006 0.186,0.001C0.167,-0.004 0.15,-0.012 0.137,-0.025C0.123,-0.038 0.112,-0.054 0.105,-0.075C0.097,-0.095 0.093,-0.121 0.093,-0.152L0.093,-0.406L0.029,-0.406L0.029,-0.536L0.093,-0.536L0.093,-0.673L0.245,-0.673L0.245,-0.536L0.371,-0.536L0.371,-0.406L0.245,-0.406L0.245,-0.176C0.245,-0.141 0.261,-0.124 0.294,-0.124C0.321,-0.124 0.346,-0.131 0.369,-0.144L0.369,-0.022C0.353,-0.013 0.335,-0.005 0.316,0C0.297,0.006 0.274,0.009 0.249,0.009Z"
           style="fill:rgb(49,49,49);fill-rule:nonzero;"
           id="path392" /></g><g
         transform="matrix(423.002,0,0,423.002,2791.62,531)"
         id="g398"><rect
           x="0.091"
           y="-0.7"
           width="0.154"
           height="0.7"
           style="fill:rgb(49,49,49);fill-rule:nonzero;"
           id="rect396" /></g><g
         transform="matrix(423.002,0,0,423.002,2933.75,531)"
         id="g402"><path
           d="M0.321,0.012C0.281,0.012 0.244,0.005 0.21,-0.01C0.175,-0.025 0.146,-0.045 0.121,-0.07C0.096,-0.095 0.077,-0.124 0.063,-0.158C0.049,-0.191 0.042,-0.227 0.042,-0.265L0.042,-0.267C0.042,-0.305 0.049,-0.341 0.063,-0.375C0.077,-0.409 0.096,-0.439 0.121,-0.464C0.146,-0.489 0.175,-0.509 0.21,-0.524C0.244,-0.539 0.282,-0.546 0.323,-0.546C0.374,-0.546 0.416,-0.538 0.449,-0.522C0.482,-0.506 0.512,-0.484 0.537,-0.456L0.444,-0.356C0.427,-0.374 0.409,-0.388 0.391,-0.399C0.372,-0.41 0.349,-0.415 0.322,-0.415C0.303,-0.415 0.285,-0.411 0.27,-0.404C0.254,-0.396 0.24,-0.385 0.229,-0.372C0.217,-0.359 0.208,-0.343 0.202,-0.326C0.195,-0.308 0.192,-0.289 0.192,-0.269L0.192,-0.267C0.192,-0.246 0.195,-0.227 0.202,-0.209C0.208,-0.191 0.217,-0.175 0.229,-0.162C0.241,-0.149 0.255,-0.138 0.272,-0.131C0.289,-0.123 0.307,-0.119 0.328,-0.119C0.353,-0.119 0.376,-0.124 0.395,-0.135C0.413,-0.145 0.432,-0.159 0.451,-0.176L0.54,-0.086C0.514,-0.057 0.484,-0.034 0.451,-0.016C0.418,0.003 0.374,0.012 0.321,0.012Z"
           style="fill:rgb(49,49,49);fill-rule:nonzero;"
           id="path400" /></g><g
         transform="matrix(423.002,0,0,423.002,3175.28,531)"
         id="g406"><path
           d="M0.333,-0.119C0.355,-0.119 0.375,-0.123 0.392,-0.131C0.408,-0.138 0.423,-0.149 0.435,-0.162C0.447,-0.175 0.456,-0.191 0.463,-0.209C0.469,-0.226 0.472,-0.245 0.472,-0.265L0.472,-0.267C0.472,-0.287 0.469,-0.306 0.462,-0.324C0.455,-0.341 0.446,-0.357 0.433,-0.371C0.42,-0.384 0.405,-0.395 0.388,-0.403C0.371,-0.411 0.352,-0.415 0.331,-0.415C0.309,-0.415 0.29,-0.411 0.273,-0.404C0.256,-0.396 0.241,-0.385 0.229,-0.372C0.217,-0.359 0.208,-0.343 0.202,-0.326C0.195,-0.308 0.192,-0.289 0.192,-0.269L0.192,-0.267C0.192,-0.247 0.195,-0.228 0.202,-0.211C0.209,-0.193 0.218,-0.177 0.231,-0.164C0.244,-0.15 0.259,-0.139 0.276,-0.131C0.293,-0.123 0.312,-0.119 0.333,-0.119ZM0.331,0.012C0.29,0.012 0.251,0.005 0.216,-0.01C0.181,-0.024 0.15,-0.043 0.125,-0.069C0.099,-0.094 0.079,-0.123 0.064,-0.157C0.049,-0.19 0.042,-0.226 0.042,-0.265L0.042,-0.267C0.042,-0.306 0.049,-0.342 0.064,-0.376C0.079,-0.409 0.099,-0.439 0.125,-0.464C0.151,-0.489 0.182,-0.509 0.217,-0.524C0.252,-0.539 0.291,-0.546 0.333,-0.546C0.374,-0.546 0.413,-0.539 0.448,-0.525C0.483,-0.51 0.514,-0.491 0.54,-0.466C0.565,-0.441 0.585,-0.411 0.6,-0.378C0.615,-0.344 0.622,-0.308 0.622,-0.269L0.622,-0.267C0.622,-0.228 0.615,-0.192 0.6,-0.159C0.585,-0.125 0.565,-0.095 0.539,-0.07C0.513,-0.045 0.482,-0.025 0.447,-0.01C0.412,0.005 0.373,0.012 0.331,0.012Z"
           style="fill:rgb(49,49,49);fill-rule:nonzero;"
           id="path404" /></g><g
         transform="matrix(423.002,0,0,423.002,3456.16,531)"
         id="g410"><path
           d="M0.068,-0.536L0.22,-0.536L0.22,-0.459C0.229,-0.471 0.238,-0.482 0.249,-0.492C0.259,-0.503 0.27,-0.512 0.283,-0.52C0.296,-0.528 0.31,-0.534 0.325,-0.539C0.34,-0.544 0.358,-0.546 0.377,-0.546C0.435,-0.546 0.48,-0.528 0.511,-0.493C0.543,-0.458 0.559,-0.409 0.559,-0.347L0.559,0L0.407,0L0.407,-0.298C0.407,-0.334 0.399,-0.361 0.383,-0.38C0.367,-0.398 0.344,-0.407 0.315,-0.407C0.286,-0.407 0.263,-0.398 0.246,-0.38C0.229,-0.361 0.22,-0.334 0.22,-0.298L0.22,0L0.068,0L0.068,-0.536Z"
           style="fill:rgb(49,49,49);fill-rule:nonzero;"
           id="path408" /></g><g
         transform="matrix(423.002,0,0,423.002,3719.69,531)"
         id="g414"><path
           d="M0.256,0.01C0.218,0.01 0.179,0.003 0.14,-0.01C0.1,-0.023 0.062,-0.043 0.026,-0.071L0.091,-0.171C0.12,-0.15 0.15,-0.134 0.179,-0.123C0.207,-0.112 0.235,-0.107 0.26,-0.107C0.282,-0.107 0.298,-0.111 0.309,-0.118C0.319,-0.125 0.324,-0.135 0.324,-0.147L0.324,-0.149C0.324,-0.157 0.321,-0.164 0.315,-0.17C0.309,-0.176 0.301,-0.181 0.291,-0.186C0.28,-0.19 0.268,-0.194 0.255,-0.198C0.242,-0.202 0.228,-0.206 0.213,-0.211C0.194,-0.216 0.175,-0.223 0.157,-0.231C0.138,-0.238 0.12,-0.248 0.105,-0.261C0.09,-0.273 0.077,-0.288 0.068,-0.306C0.058,-0.324 0.053,-0.346 0.053,-0.372L0.053,-0.374C0.053,-0.401 0.058,-0.426 0.069,-0.447C0.079,-0.468 0.093,-0.485 0.111,-0.5C0.128,-0.515 0.149,-0.526 0.172,-0.533C0.196,-0.54 0.222,-0.544 0.249,-0.544C0.283,-0.544 0.318,-0.539 0.353,-0.528C0.388,-0.517 0.42,-0.501 0.449,-0.482L0.391,-0.377C0.364,-0.392 0.338,-0.405 0.313,-0.413C0.288,-0.423 0.265,-0.427 0.246,-0.427C0.227,-0.427 0.213,-0.424 0.204,-0.417C0.195,-0.409 0.19,-0.401 0.19,-0.39L0.19,-0.388C0.19,-0.381 0.193,-0.374 0.199,-0.369C0.205,-0.363 0.213,-0.358 0.223,-0.353C0.233,-0.347 0.245,-0.343 0.258,-0.338C0.271,-0.333 0.284,-0.329 0.299,-0.324C0.318,-0.318 0.337,-0.311 0.356,-0.303C0.375,-0.294 0.393,-0.284 0.408,-0.272C0.423,-0.26 0.436,-0.245 0.446,-0.228C0.456,-0.211 0.461,-0.19 0.461,-0.165L0.461,-0.163C0.461,-0.133 0.456,-0.107 0.446,-0.086C0.435,-0.064 0.421,-0.046 0.402,-0.032C0.383,-0.018 0.362,-0.008 0.337,-0.001C0.312,0.006 0.285,0.01 0.256,0.01Z"
           style="fill:rgb(49,49,49);fill-rule:nonzero;"
           id="path412" /></g></g><g
       transform="matrix(1,0,0,1,-119.185,1006)"
       id="g442"><g
         transform="matrix(134.624,0,0,134.624,3814.65,717.747)"
         id="g420"><path
           d="M0.347,-0.058C0.372,-0.058 0.395,-0.063 0.418,-0.071C0.44,-0.081 0.459,-0.094 0.475,-0.111C0.492,-0.128 0.505,-0.148 0.515,-0.173C0.524,-0.198 0.529,-0.226 0.529,-0.257L0.529,-0.259C0.529,-0.29 0.524,-0.317 0.515,-0.342C0.505,-0.367 0.492,-0.388 0.475,-0.405C0.458,-0.422 0.439,-0.436 0.417,-0.445C0.395,-0.454 0.372,-0.459 0.347,-0.459C0.323,-0.459 0.3,-0.454 0.278,-0.445C0.255,-0.435 0.235,-0.421 0.218,-0.404C0.2,-0.386 0.186,-0.365 0.175,-0.341C0.165,-0.316 0.16,-0.289 0.16,-0.26L0.16,-0.258C0.16,-0.228 0.165,-0.201 0.175,-0.176C0.186,-0.151 0.2,-0.13 0.218,-0.113C0.235,-0.096 0.255,-0.082 0.278,-0.073C0.3,-0.063 0.323,-0.058 0.347,-0.058ZM0.361,0.011C0.337,0.011 0.315,0.008 0.295,0.002C0.275,-0.004 0.257,-0.012 0.241,-0.022C0.225,-0.032 0.211,-0.044 0.198,-0.057C0.185,-0.07 0.173,-0.084 0.163,-0.099L0.163,0L0.086,0L0.086,-0.73L0.163,-0.73L0.163,-0.413C0.174,-0.428 0.186,-0.443 0.199,-0.457C0.212,-0.471 0.226,-0.483 0.242,-0.494C0.258,-0.504 0.276,-0.512 0.296,-0.519C0.315,-0.525 0.337,-0.528 0.361,-0.528C0.392,-0.528 0.422,-0.522 0.452,-0.51C0.481,-0.498 0.508,-0.481 0.531,-0.458C0.554,-0.435 0.573,-0.406 0.587,-0.374C0.601,-0.341 0.608,-0.303 0.608,-0.26L0.608,-0.258C0.608,-0.216 0.601,-0.178 0.587,-0.145C0.573,-0.112 0.555,-0.084 0.532,-0.061C0.508,-0.038 0.482,-0.02 0.453,-0.008C0.423,0.005 0.392,0.011 0.361,0.011Z"
           style="fill:rgb(49,49,49);fill-rule:nonzero;"
           id="path418" /></g><g
         transform="matrix(134.624,0,0,134.624,3904.04,717.747)"
         id="g424"><path
           d="M0.166,0.163C0.145,0.163 0.125,0.161 0.108,0.156C0.091,0.152 0.073,0.146 0.056,0.137L0.082,0.076C0.095,0.083 0.107,0.087 0.119,0.09C0.132,0.093 0.146,0.095 0.163,0.095C0.186,0.095 0.206,0.088 0.222,0.074C0.238,0.06 0.254,0.035 0.269,-0.002L0.034,-0.517L0.119,-0.517L0.307,-0.086L0.473,-0.517L0.555,-0.517L0.338,0.017C0.316,0.07 0.292,0.108 0.265,0.13C0.237,0.152 0.205,0.163 0.166,0.163Z"
           style="fill:rgb(49,49,49);fill-rule:nonzero;"
           id="path422" /></g><g
         transform="matrix(134.624,0,0,134.624,4023.99,717.747)"
         id="g428"><path
           d="M0.342,-0.073C0.386,-0.073 0.426,-0.08 0.462,-0.094C0.498,-0.108 0.529,-0.127 0.554,-0.152C0.579,-0.177 0.598,-0.206 0.612,-0.239C0.625,-0.273 0.632,-0.309 0.632,-0.348L0.632,-0.35C0.632,-0.389 0.625,-0.425 0.612,-0.459C0.598,-0.492 0.579,-0.522 0.554,-0.547C0.529,-0.572 0.498,-0.591 0.462,-0.606C0.426,-0.62 0.386,-0.627 0.342,-0.627L0.178,-0.627L0.178,-0.073L0.342,-0.073ZM0.099,-0.7L0.342,-0.7C0.397,-0.7 0.447,-0.691 0.493,-0.674C0.538,-0.656 0.578,-0.631 0.611,-0.6C0.644,-0.569 0.669,-0.532 0.687,-0.49C0.705,-0.447 0.714,-0.401 0.714,-0.352L0.714,-0.35C0.714,-0.301 0.705,-0.255 0.687,-0.212C0.669,-0.169 0.644,-0.132 0.611,-0.101C0.578,-0.07 0.538,-0.045 0.493,-0.027C0.447,-0.009 0.397,0 0.342,0L0.099,0L0.099,-0.7Z"
           style="fill:rgb(49,49,49);fill-rule:nonzero;"
           id="path426" /></g><g
         transform="matrix(134.624,0,0,134.624,4129.27,717.747)"
         id="g432"><path
           d="M0.256,-0.052C0.279,-0.052 0.302,-0.055 0.322,-0.062C0.343,-0.069 0.361,-0.078 0.377,-0.09C0.392,-0.103 0.405,-0.117 0.414,-0.134C0.423,-0.151 0.427,-0.17 0.427,-0.19L0.427,-0.238C0.408,-0.243 0.386,-0.248 0.361,-0.253C0.337,-0.258 0.308,-0.26 0.277,-0.26C0.229,-0.26 0.192,-0.251 0.165,-0.232C0.139,-0.213 0.126,-0.188 0.126,-0.157L0.126,-0.155C0.126,-0.139 0.129,-0.124 0.136,-0.111C0.143,-0.098 0.153,-0.087 0.165,-0.079C0.177,-0.07 0.191,-0.064 0.206,-0.059C0.222,-0.054 0.238,-0.052 0.256,-0.052ZM0.24,0.011C0.216,0.011 0.192,0.008 0.169,0.001C0.146,-0.006 0.125,-0.016 0.107,-0.029C0.089,-0.043 0.075,-0.06 0.064,-0.08C0.053,-0.1 0.047,-0.123 0.047,-0.15L0.047,-0.152C0.047,-0.18 0.052,-0.204 0.063,-0.226C0.074,-0.247 0.089,-0.264 0.109,-0.278C0.128,-0.292 0.152,-0.303 0.179,-0.31C0.205,-0.317 0.235,-0.321 0.268,-0.321C0.301,-0.321 0.33,-0.319 0.355,-0.315C0.379,-0.311 0.403,-0.306 0.426,-0.299L0.426,-0.315C0.426,-0.361 0.413,-0.395 0.386,-0.419C0.359,-0.442 0.322,-0.454 0.273,-0.454C0.242,-0.454 0.215,-0.451 0.19,-0.444C0.165,-0.437 0.14,-0.428 0.116,-0.417L0.093,-0.48C0.122,-0.494 0.151,-0.505 0.18,-0.513C0.209,-0.521 0.243,-0.525 0.281,-0.525C0.354,-0.525 0.41,-0.506 0.448,-0.468C0.484,-0.432 0.502,-0.381 0.502,-0.316L0.502,0L0.426,0L0.426,-0.077C0.408,-0.054 0.384,-0.033 0.354,-0.016C0.323,0.002 0.285,0.011 0.24,0.011Z"
           style="fill:rgb(49,49,49);fill-rule:nonzero;"
           id="path430" /></g><g
         transform="matrix(134.624,0,0,134.624,4207.22,717.747)"
         id="g436"><path
           d="M0.086,-0.517L0.163,-0.517L0.163,-0.427C0.18,-0.455 0.203,-0.479 0.231,-0.499C0.259,-0.518 0.295,-0.528 0.34,-0.528C0.371,-0.528 0.399,-0.523 0.424,-0.513C0.448,-0.503 0.469,-0.489 0.486,-0.47C0.502,-0.452 0.516,-0.43 0.525,-0.405C0.534,-0.38 0.538,-0.352 0.538,-0.321L0.538,0L0.461,0L0.461,-0.301C0.461,-0.349 0.449,-0.387 0.424,-0.415C0.399,-0.443 0.364,-0.457 0.318,-0.457C0.296,-0.457 0.276,-0.453 0.257,-0.446C0.237,-0.438 0.221,-0.427 0.207,-0.413C0.193,-0.398 0.182,-0.381 0.174,-0.361C0.167,-0.341 0.163,-0.319 0.163,-0.295L0.163,0L0.086,0L0.086,-0.517Z"
           style="fill:rgb(49,49,49);fill-rule:nonzero;"
           id="path434" /></g><g
         transform="matrix(134.624,0,0,134.624,4290.14,717.747)"
         id="g440"><path
           d="M0.086,-0.517L0.163,-0.517L0.163,-0.427C0.18,-0.455 0.203,-0.479 0.231,-0.499C0.259,-0.518 0.295,-0.528 0.34,-0.528C0.371,-0.528 0.399,-0.523 0.424,-0.513C0.448,-0.503 0.469,-0.489 0.486,-0.47C0.502,-0.452 0.516,-0.43 0.525,-0.405C0.534,-0.38 0.538,-0.352 0.538,-0.321L0.538,0L0.461,0L0.461,-0.301C0.461,-0.349 0.449,-0.387 0.424,-0.415C0.399,-0.443 0.364,-0.457 0.318,-0.457C0.296,-0.457 0.276,-0.453 0.257,-0.446C0.237,-0.438 0.221,-0.427 0.207,-0.413C0.193,-0.398 0.182,-0.381 0.174,-0.361C0.167,-0.341 0.163,-0.319 0.163,-0.295L0.163,0L0.086,0L0.086,-0.517Z"
           style="fill:rgb(49,49,49);fill-rule:nonzero;"
           id="path438" /></g></g></g><g
     transform="matrix(1,0,0,1,0,701.107)"
     id="g448"><path
       d="M4875,1355.84C4875,1078.2 4649.59,852.785 4371.95,852.785L645.789,852.785C368.146,852.785 142.736,1078.2 142.736,1355.84L142.736,2361.95C142.736,2639.59 368.146,2865 645.789,2865L4371.95,2865C4649.59,2865 4875,2639.59 4875,2361.95L4875,1355.84Z"
       style="fill:none;stroke:rgb(49,49,49);stroke-width:12.5px;"
       id="path446" /></g><defs
     id="defs502"><linearGradient
       id="_Linear1"
       x1="0"
       y1="0"
       x2="1"
       y2="0"
       gradientUnits="userSpaceOnUse"
       gradientTransform="matrix(2275.73,2273.78,-2273.78,2275.73,1422.13,1850.01)"><stop
         offset="0"
         style="stop-color:rgb(197,106,229);stop-opacity:1"
         id="stop450" /><stop
         offset="1"
         style="stop-color:rgb(110,0,125);stop-opacity:1"
         id="stop452" /></linearGradient><linearGradient
       id="_Linear2"
       x1="0"
       y1="0"
       x2="1"
       y2="0"
       gradientUnits="userSpaceOnUse"
       gradientTransform="matrix(2275.73,2273.78,-2273.78,2275.73,1422.13,1850.01)"><stop
         offset="0"
         style="stop-color:rgb(249,255,51);stop-opacity:1"
         id="stop455" /><stop
         offset="1"
         style="stop-color:rgb(172,127,1);stop-opacity:1"
         id="stop457" /></linearGradient><linearGradient
       id="_Linear3"
       x1="0"
       y1="0"
       x2="1"
       y2="0"
       gradientUnits="userSpaceOnUse"
       gradientTransform="matrix(2275.73,2273.78,-2273.78,2275.73,1422.13,1850.01)"><stop
         offset="0"
         style="stop-color:rgb(229,109,106);stop-opacity:1"
         id="stop460" /><stop
         offset="1"
         style="stop-color:rgb(172,1,114);stop-opacity:1"
         id="stop462" /></linearGradient><linearGradient
       id="_Linear4"
       x1="0"
       y1="0"
       x2="1"
       y2="0"
       gradientUnits="userSpaceOnUse"
       gradientTransform="matrix(2275.73,2273.78,-2273.78,2275.73,1422.13,1850.01)"><stop
         offset="0"
         style="stop-color:rgb(106,229,111);stop-opacity:1"
         id="stop465" /><stop
         offset="1"
         style="stop-color:rgb(1,172,123);stop-opacity:1"
         id="stop467" /></linearGradient><linearGradient
       id="_Linear5"
       x1="0"
       y1="0"
       x2="1"
       y2="0"
       gradientUnits="userSpaceOnUse"
       gradientTransform="matrix(2275.73,2273.78,-2273.78,2275.73,1422.13,1850.01)"><stop
         offset="0"
         style="stop-color:rgb(106,177,229);stop-opacity:1"
         id="stop470" /><stop
         offset="1"
         style="stop-color:rgb(65,0,188);stop-opacity:1"
         id="stop472" /></linearGradient><linearGradient
       id="_Linear6"
       x1="0"
       y1="0"
       x2="1"
       y2="0"
       gradientUnits="userSpaceOnUse"
       gradientTransform="matrix(2869.81,2552.11,-2552.11,2869.81,1162.03,1242.45)"><stop
         offset="0"
         style="stop-color:rgb(185,60,228);stop-opacity:1"
         id="stop475" /><stop
         offset="1"
         style="stop-color:rgb(134,0,180);stop-opacity:1"
         id="stop477" /></linearGradient><linearGradient
       id="_Linear7"
       x1="0"
       y1="0"
       x2="1"
       y2="0"
       gradientUnits="userSpaceOnUse"
       gradientTransform="matrix(2744.74,2687.31,-2687.31,2744.74,1160.93,1243.61)"><stop
         offset="0"
         style="stop-color:rgb(226,228,60);stop-opacity:1"
         id="stop480" /><stop
         offset="1"
         style="stop-color:rgb(255,172,0);stop-opacity:1"
         id="stop482" /></linearGradient><linearGradient
       id="_Linear8"
       x1="0"
       y1="0"
       x2="1"
       y2="0"
       gradientUnits="userSpaceOnUse"
       gradientTransform="matrix(2943.68,2469.12,-2469.12,2943.68,1088.16,1325.44)"><stop
         offset="0"
         style="stop-color:rgb(228,60,107);stop-opacity:1"
         id="stop485" /><stop
         offset="0.53"
         style="stop-color:rgb(217,47,94);stop-opacity:1"
         id="stop487" /><stop
         offset="1"
         style="stop-color:rgb(180,0,50);stop-opacity:1"
         id="stop489" /></linearGradient><linearGradient
       id="_Linear9"
       x1="0"
       y1="0"
       x2="1"
       y2="0"
       gradientUnits="userSpaceOnUse"
       gradientTransform="matrix(-2272.44,-3094.46,3094.46,-2272.44,3634.11,4152.94)"><stop
         offset="0"
         style="stop-color:rgb(62,170,85);stop-opacity:1"
         id="stop492" /><stop
         offset="1"
         style="stop-color:rgb(77,244,199);stop-opacity:1"
         id="stop494" /></linearGradient><linearGradient
       id="_Linear10"
       x1="0"
       y1="0"
       x2="1"
       y2="0"
       gradientUnits="userSpaceOnUse"
       gradientTransform="matrix(2536.04,2885.64,-2885.64,2536.04,1312.76,1098.9)"><stop
         offset="0"
         style="stop-color:rgb(0,147,255);stop-opacity:1"
         id="stop497" /><stop
         offset="1"
         style="stop-color:rgb(0,88,153);stop-opacity:1"
         id="stop499" /></linearGradient></defs></svg>